<mxfile host="app.diagrams.net" modified="2021-02-24T06:11:39.748Z" agent="5.0 (Windows NT 6.1; WOW64) AppleWebKit/537.36 (KHTML, like Gecko) Chrome/78.0.3904.108 Safari/537.36" etag="Ok9m5se_yXLAlA2Ci037" version="14.4.2" type="github">
  <diagram id="6Dx-Y0W-VOuhuE913dZ1" name="Page-1">
    <mxGraphModel dx="942" dy="554" grid="1" gridSize="10" guides="1" tooltips="1" connect="1" arrows="1" fold="1" page="1" pageScale="1" pageWidth="827" pageHeight="1169" math="0" shadow="0">
      <root>
        <mxCell id="0" />
        <mxCell id="1" parent="0" />
        <mxCell id="RrNbO2ygOsdEcwcnWi9B-1" value="" style="rounded=0;whiteSpace=wrap;html=1;strokeWidth=4;" parent="1" vertex="1">
          <mxGeometry x="330" y="40" width="140" height="60" as="geometry" />
        </mxCell>
        <mxCell id="RrNbO2ygOsdEcwcnWi9B-2" value="" style="rounded=0;whiteSpace=wrap;html=1;strokeWidth=4;" parent="1" vertex="1">
          <mxGeometry x="210" y="160" width="140" height="60" as="geometry" />
        </mxCell>
        <mxCell id="RrNbO2ygOsdEcwcnWi9B-3" value="" style="rounded=0;whiteSpace=wrap;html=1;strokeWidth=4;" parent="1" vertex="1">
          <mxGeometry x="450" y="400" width="140" height="60" as="geometry" />
        </mxCell>
        <mxCell id="RrNbO2ygOsdEcwcnWi9B-4" value="" style="rounded=0;whiteSpace=wrap;html=1;strokeWidth=4;" parent="1" vertex="1">
          <mxGeometry x="330" y="280" width="140" height="60" as="geometry" />
        </mxCell>
        <mxCell id="RrNbO2ygOsdEcwcnWi9B-5" value="" style="rounded=0;whiteSpace=wrap;html=1;strokeWidth=4;" parent="1" vertex="1">
          <mxGeometry x="210" y="400" width="140" height="60" as="geometry" />
        </mxCell>
        <mxCell id="RrNbO2ygOsdEcwcnWi9B-6" value="" style="rounded=0;whiteSpace=wrap;html=1;strokeWidth=4;" parent="1" vertex="1">
          <mxGeometry x="450" y="160" width="140" height="60" as="geometry" />
        </mxCell>
        <mxCell id="RrNbO2ygOsdEcwcnWi9B-7" value="" style="endArrow=classic;html=1;strokeWidth=3;exitX=0.5;exitY=0;exitDx=0;exitDy=0;entryX=0.5;entryY=1;entryDx=0;entryDy=0;" parent="1" source="RrNbO2ygOsdEcwcnWi9B-4" target="RrNbO2ygOsdEcwcnWi9B-1" edge="1">
          <mxGeometry width="50" height="50" relative="1" as="geometry">
            <mxPoint x="390" y="270" as="sourcePoint" />
            <mxPoint x="440" y="220" as="targetPoint" />
          </mxGeometry>
        </mxCell>
        <mxCell id="RrNbO2ygOsdEcwcnWi9B-8" value="" style="endArrow=classic;html=1;strokeWidth=3;edgeStyle=orthogonalEdgeStyle;entryX=1;entryY=0.5;entryDx=0;entryDy=0;" parent="1" target="RrNbO2ygOsdEcwcnWi9B-1" edge="1">
          <mxGeometry width="50" height="50" relative="1" as="geometry">
            <mxPoint x="520" y="160" as="sourcePoint" />
            <mxPoint x="520" y="10" as="targetPoint" />
            <Array as="points">
              <mxPoint x="520" y="70" />
            </Array>
          </mxGeometry>
        </mxCell>
        <mxCell id="RrNbO2ygOsdEcwcnWi9B-9" value="" style="endArrow=classic;html=1;strokeWidth=3;edgeStyle=orthogonalEdgeStyle;" parent="1" edge="1">
          <mxGeometry width="50" height="50" relative="1" as="geometry">
            <mxPoint x="280" y="160" as="sourcePoint" />
            <mxPoint x="330" y="70" as="targetPoint" />
            <Array as="points">
              <mxPoint x="280" y="70" />
            </Array>
          </mxGeometry>
        </mxCell>
        <mxCell id="RrNbO2ygOsdEcwcnWi9B-10" value="" style="endArrow=classic;html=1;strokeWidth=3;edgeStyle=orthogonalEdgeStyle;" parent="1" edge="1">
          <mxGeometry width="50" height="50" relative="1" as="geometry">
            <mxPoint x="500" y="400" as="sourcePoint" />
            <mxPoint x="470" y="310" as="targetPoint" />
            <Array as="points">
              <mxPoint x="500" y="310" />
            </Array>
          </mxGeometry>
        </mxCell>
        <mxCell id="RrNbO2ygOsdEcwcnWi9B-11" value="" style="endArrow=classic;html=1;strokeWidth=3;edgeStyle=orthogonalEdgeStyle;" parent="1" edge="1">
          <mxGeometry width="50" height="50" relative="1" as="geometry">
            <mxPoint x="300" y="400" as="sourcePoint" />
            <mxPoint x="330" y="310" as="targetPoint" />
            <Array as="points">
              <mxPoint x="300" y="310" />
            </Array>
          </mxGeometry>
        </mxCell>
        <mxCell id="RrNbO2ygOsdEcwcnWi9B-12" value="" style="endArrow=classic;html=1;strokeWidth=3;entryX=0.35;entryY=1.05;entryDx=0;entryDy=0;entryPerimeter=0;" parent="1" target="RrNbO2ygOsdEcwcnWi9B-2" edge="1">
          <mxGeometry width="50" height="50" relative="1" as="geometry">
            <mxPoint x="260" y="400" as="sourcePoint" />
            <mxPoint x="260" y="230" as="targetPoint" />
          </mxGeometry>
        </mxCell>
        <mxCell id="RrNbO2ygOsdEcwcnWi9B-13" value="" style="endArrow=classic;html=1;strokeWidth=3;entryX=0.621;entryY=1.05;entryDx=0;entryDy=0;entryPerimeter=0;" parent="1" target="RrNbO2ygOsdEcwcnWi9B-6" edge="1">
          <mxGeometry width="50" height="50" relative="1" as="geometry">
            <mxPoint x="540" y="400" as="sourcePoint" />
            <mxPoint x="590" y="350" as="targetPoint" />
          </mxGeometry>
        </mxCell>
        <mxCell id="RrNbO2ygOsdEcwcnWi9B-14" value="&lt;span style=&quot;color: rgb(68 , 68 , 68) ; text-align: left ; background-color: rgb(255 , 255 , 255)&quot;&gt;&lt;font face=&quot;Courier New&quot; size=&quot;1&quot;&gt;&lt;b style=&quot;font-size: 25px&quot;&gt;PurePath&lt;/b&gt;&lt;/font&gt;&lt;/span&gt;" style="text;html=1;resizable=0;autosize=1;align=center;verticalAlign=middle;points=[];fillColor=none;strokeColor=none;rounded=0;" parent="1" vertex="1">
          <mxGeometry x="330" y="60" width="140" height="20" as="geometry" />
        </mxCell>
        <mxCell id="RrNbO2ygOsdEcwcnWi9B-15" value="&lt;span style=&quot;color: rgb(68 , 68 , 68) ; text-align: left ; background-color: rgb(255 , 255 , 255)&quot;&gt;&lt;font face=&quot;Courier New&quot; size=&quot;1&quot;&gt;&lt;b style=&quot;font-size: 25px&quot;&gt;Path&lt;/b&gt;&lt;/font&gt;&lt;/span&gt;" style="text;html=1;resizable=0;autosize=1;align=center;verticalAlign=middle;points=[];fillColor=none;strokeColor=none;rounded=0;" parent="1" vertex="1">
          <mxGeometry x="360" y="300" width="80" height="20" as="geometry" />
        </mxCell>
        <mxCell id="RrNbO2ygOsdEcwcnWi9B-16" value="&lt;span style=&quot;color: rgb(68 , 68 , 68) ; text-align: left ; background-color: rgb(255 , 255 , 255)&quot;&gt;&lt;font face=&quot;Courier New&quot; style=&quot;font-size: 16px&quot;&gt;&lt;b&gt;PurePosixPath&lt;/b&gt;&lt;/font&gt;&lt;/span&gt;" style="text;html=1;resizable=0;autosize=1;align=center;verticalAlign=middle;points=[];fillColor=none;strokeColor=none;rounded=0;" parent="1" vertex="1">
          <mxGeometry x="210" y="180" width="140" height="20" as="geometry" />
        </mxCell>
        <mxCell id="RrNbO2ygOsdEcwcnWi9B-17" value="&lt;span style=&quot;color: rgb(68 , 68 , 68) ; text-align: left ; background-color: rgb(255 , 255 , 255)&quot;&gt;&lt;font face=&quot;Courier New&quot; size=&quot;1&quot;&gt;&lt;b style=&quot;font-size: 14px&quot;&gt;PureWindowsPath&lt;/b&gt;&lt;/font&gt;&lt;/span&gt;" style="text;html=1;resizable=0;autosize=1;align=center;verticalAlign=middle;points=[];fillColor=none;strokeColor=none;rounded=0;" parent="1" vertex="1">
          <mxGeometry x="450" y="180" width="140" height="20" as="geometry" />
        </mxCell>
        <mxCell id="RrNbO2ygOsdEcwcnWi9B-18" value="&lt;span style=&quot;color: rgb(68 , 68 , 68) ; text-align: left ; background-color: rgb(255 , 255 , 255)&quot;&gt;&lt;font face=&quot;Courier New&quot; size=&quot;1&quot;&gt;&lt;b style=&quot;font-size: 23px&quot;&gt;PosixPath&lt;/b&gt;&lt;/font&gt;&lt;/span&gt;" style="text;html=1;resizable=0;autosize=1;align=center;verticalAlign=middle;points=[];fillColor=none;strokeColor=none;rounded=0;" parent="1" vertex="1">
          <mxGeometry x="210" y="420" width="140" height="20" as="geometry" />
        </mxCell>
        <mxCell id="RrNbO2ygOsdEcwcnWi9B-19" value="&lt;span style=&quot;color: rgb(68 , 68 , 68) ; text-align: left ; background-color: rgb(255 , 255 , 255)&quot;&gt;&lt;font face=&quot;Courier New&quot; size=&quot;1&quot;&gt;&lt;b style=&quot;font-size: 19px&quot;&gt;WindowsPath&lt;/b&gt;&lt;/font&gt;&lt;/span&gt;" style="text;html=1;resizable=0;autosize=1;align=center;verticalAlign=middle;points=[];fillColor=none;strokeColor=none;rounded=0;" parent="1" vertex="1">
          <mxGeometry x="450" y="420" width="140" height="20" as="geometry" />
        </mxCell>
        <mxCell id="RrNbO2ygOsdEcwcnWi9B-20" value="&lt;b style=&quot;font-size: 14px&quot;&gt;&lt;span style=&quot;color: rgb(68 , 68 , 68) ; font-family: &amp;#34;helvetica neue&amp;#34; , , &amp;#34;microsoft yahei&amp;#34; , &amp;#34;helvetica&amp;#34; , &amp;#34;arial&amp;#34; , sans-serif ; background-color: rgb(255 , 255 , 255)&quot;&gt;pathlib模块中类的&lt;/span&gt;&lt;span style=&quot;color: rgb(68 , 68 , 68) ; font-family: &amp;#34;helvetica neue&amp;#34; , , &amp;#34;microsoft yahei&amp;#34; , &amp;#34;helvetica&amp;#34; , &amp;#34;arial&amp;#34; , sans-serif ; background-color: rgb(255 , 255 , 255)&quot;&gt;继承关系@YOUChanWill&lt;/span&gt;&lt;/b&gt;" style="text;html=1;resizable=0;autosize=1;align=center;verticalAlign=middle;points=[];fillColor=none;strokeColor=none;rounded=0;" parent="1" vertex="1">
          <mxGeometry x="255" y="480" width="290" height="20" as="geometry" />
        </mxCell>
      </root>
    </mxGraphModel>
  </diagram>
</mxfile>
